<?xml version="1.0" standalone="no"?>
<!DOCTYPE svg PUBLIC "-//W3C//DTD SVG 20010904//EN"
 "http://www.w3.org/TR/2001/REC-SVG-20010904/DTD/svg10.dtd">
<svg version="1.0" xmlns="http://www.w3.org/2000/svg"
 width="327.000000pt" height="338.000000pt" viewBox="0 0 327.000000 338.000000"
 preserveAspectRatio="xMidYMid meet">

<g transform="translate(0.000000,338.000000) scale(0.100000,-0.100000)"
fill="#000000" stroke="none">
<path d="M868 3310 c-223 -39 -393 -178 -470 -383 l-23 -62 -3 -785 c-3 -703
-1 -792 14 -855 50 -214 225 -385 439 -430 104 -22 1506 -22 1610 0 215 45
389 215 439 430 15 63 17 153 14 855 l-3 785 -33 83 c-54 132 -158 248 -279
307 -123 60 -91 58 -908 61 -412 1 -771 -1 -797 -6z m1569 -104 c164 -44 298
-177 347 -345 14 -48 16 -150 16 -811 0 -824 2 -797 -57 -915 -38 -76 -86
-129 -161 -178 -131 -87 -72 -82 -906 -85 -469 -2 -764 1 -805 7 -37 6 -97 26
-136 45 -123 61 -205 155 -250 289 l-25 76 0 753 c0 822 -1 814 58 922 60 112
181 208 301 242 70 19 1545 19 1618 0z"/>
<path d="M1057 2828 c-16 -12 -17 -51 -15 -497 l3 -485 147 160 148 159 0 326
c0 240 -3 328 -12 337 -17 17 -248 16 -271 0z"/>
<path d="M2265 2617 c-110 -28 -202 -53 -205 -54 -2 -2 23 -28 55 -57 l60 -53
-120 -129 c-66 -70 -146 -155 -178 -188 l-57 -61 -109 113 c-60 61 -113 112
-119 112 -5 0 -59 -53 -118 -117 -60 -65 -147 -159 -194 -208 -47 -50 -112
-119 -145 -155 -33 -36 -115 -123 -181 -195 -180 -193 -184 -198 -184 -216 0
-19 85 -99 105 -99 6 0 52 44 101 99 168 185 607 656 616 659 4 2 56 -46 115
-108 59 -61 112 -109 118 -108 7 2 54 48 105 103 105 112 193 206 293 313 l69
72 63 -60 63 -61 7 48 c6 43 58 322 71 381 6 29 8 29 -231 -31z"/>
<path d="M1188 1518 c-82 -88 -148 -168 -148 -177 0 -41 4 -41 555 -41 400 0
534 3 543 12 18 18 16 242 -1 257 -10 7 -136 12 -403 13 l-389 3 -5 47 -5 46
-147 -160z"/>
<path d="M1410 520 c-24 -24 -24 -29 -4 -58 17 -24 62 -30 82 -10 19 19 15 66
-7 78 -29 15 -49 12 -71 -10z"/>
<path d="M2756 524 c-19 -18 -21 -55 -4 -72 13 -13 57 -16 74 -4 24 15 26 50
5 71 -25 25 -54 27 -75 5z"/>
<path d="M29 285 c-1 -124 -2 -233 -3 -242 -1 -16 14 -18 157 -21 l157 -3 0
46 0 45 -105 0 -105 0 0 200 0 200 -50 0 -50 0 -1 -225z"/>
<path d="M2360 265 l0 -245 50 0 50 0 0 100 0 100 105 0 105 0 0 40 0 40 -105
0 -105 0 0 65 0 65 113 0 112 0 2 40 2 40 -165 0 -164 0 0 -245z"/>
<path d="M392 248 c4 -191 26 -228 133 -228 32 0 51 7 74 26 l31 26 0 -26 c0
-25 3 -26 50 -26 l50 0 -2 183 -3 182 -47 3 -48 3 0 -119 c0 -106 -2 -122 -21
-146 -25 -32 -70 -35 -99 -6 -18 18 -20 33 -20 145 l0 125 -51 0 -51 0 4 -142z"/>
<path d="M800 205 l0 -185 50 0 50 0 0 128 c0 141 8 162 62 162 45 0 53 -22
54 -159 l1 -126 46 -3 45 -3 4 131 c3 117 5 133 22 146 27 19 60 18 79 -4 14
-15 17 -41 17 -145 l0 -127 50 0 50 0 0 128 c0 195 -17 232 -113 240 -46 4
-57 1 -85 -23 l-32 -27 -31 26 c-42 36 -106 36 -148 0 l-31 -26 0 26 c0 24 -3
26 -45 26 l-45 0 0 -185z"/>
<path d="M1400 205 l0 -185 50 0 50 0 0 185 0 185 -50 0 -50 0 0 -185z"/>
<path d="M1570 205 l0 -185 50 0 50 0 0 125 c0 112 2 127 20 145 26 26 72 26
96 -1 16 -18 20 -40 22 -145 l4 -124 44 0 44 0 0 140 c0 157 -9 189 -60 215
-49 26 -104 20 -145 -16 l-35 -31 0 31 c0 30 -1 31 -45 31 l-45 0 0 -185z"/>
<path d="M2044 376 c-30 -14 -74 -63 -74 -85 0 -20 85 -13 105 9 27 30 80 27
101 -6 23 -35 9 -46 -71 -55 -105 -13 -145 -47 -145 -125 0 -26 8 -44 29 -65
26 -26 36 -29 91 -29 51 0 65 4 85 25 l25 24 0 -24 c0 -23 4 -25 45 -25 l45 0
0 143 c0 160 -7 183 -60 209 -42 21 -132 23 -176 4z m146 -207 c0 -73 -89
-120 -125 -65 -23 35 -6 63 43 71 20 4 44 8 52 10 8 1 18 3 23 4 4 0 7 -8 7
-20z"/>
<path d="M2744 377 c-2 -7 -3 -89 -2 -182 l3 -170 48 -3 47 -3 0 185 0 186
-45 0 c-28 0 -48 -5 -51 -13z"/>
<path d="M2910 206 l0 -186 49 0 49 0 4 124 c2 105 6 127 22 145 24 27 70 27
96 1 18 -18 20 -33 20 -145 l0 -125 50 0 50 0 0 123 c0 145 -10 187 -52 222
-28 24 -39 27 -87 23 -43 -4 -59 -10 -77 -31 l-23 -27 -3 28 c-3 25 -7 27 -50
30 l-48 3 0 -185z"/>
</g>
</svg>
